<?xml version="1.0"?>
<svg version="1.1" xmlns="http://www.w3.org/2000/svg" xmlns:xlink="http://www.w3.org/1999/xlink" width="640" height="480">
    <desc iVinci="yes" version="4.4" gridStep="20" showGrid="no" snapToGrid="no" codePlatform="0"/>
    <g id="Layer1">
        <g id="Shape1">
            <desc type="0" basicInfo-basicType="2" basicInfo-roundedRectRadius="12" basicInfo-polygonSides="6" basicInfo-starPoints="5" bounding="rect(-16.5,-84,33,168)" text="" font-familyName="Helvetica" font-pixelSize="20" font-bold="0" font-underline="0" font-alignment="1" strokeStyle="0" markerStart="0" markerEnd="0" shadowEnabled="0" shadowOffsetX="0" shadowOffsetY="2" shadowBlur="4" shadowOpacity="160" blurEnabled="0" blurRadius="4" transform="matrix(1.92793,0,0,1.87055,140.311,292.055)" pers-center="0,0" pers-size="0,0" pers-start="0,0" pers-end="0,0" locked="0" mesh="" flag=""/>
            <path id="shapePath1" d="M108.5,157.376 C108.5,144.979 118.858,134.929 131.635,134.929 L148.987,134.929 C161.764,134.929 172.122,144.979 172.122,157.376 L172.122,426.735 C172.122,439.132 161.764,449.182 148.987,449.182 L131.635,449.182 C118.858,449.182 108.5,439.132 108.5,426.735 L108.5,157.376 Z" style="stroke:none;fill-rule:evenodd;fill:#393939;fill-opacity:1;"/>
        </g>
        <g id="Shape2">
            <desc type="0" basicInfo-basicType="2" basicInfo-roundedRectRadius="12" basicInfo-polygonSides="6" basicInfo-starPoints="5" bounding="rect(-16.5,-84,33,168)" text="" font-familyName="Helvetica" font-pixelSize="20" font-bold="0" font-underline="0" font-alignment="1" strokeStyle="0" markerStart="0" markerEnd="0" shadowEnabled="0" shadowOffsetX="0" shadowOffsetY="2" shadowBlur="4" shadowOpacity="160" blurEnabled="0" blurRadius="4" transform="matrix(1.64644,-1.00306,0.698791,1.14701,192.69,247.471)" pers-center="0,0" pers-size="0,0" pers-start="0,0" pers-end="0,0" locked="0" mesh="" flag=""/>
            <path id="shapePath2" d="M115.211,181.437 C110.579,173.836 115.671,162.284 126.582,155.636 L141.4,146.609 C152.312,139.961 164.912,140.735 169.543,148.336 L270.169,313.505 C274.8,321.107 269.709,332.659 258.797,339.306 L243.979,348.334 C233.068,354.982 220.468,354.208 215.837,346.607 L115.211,181.437 Z" style="stroke:none;fill-rule:evenodd;fill:#393939;fill-opacity:1;"/>
        </g>
        <g id="Shape3">
            <desc type="0" basicInfo-basicType="2" basicInfo-roundedRectRadius="12" basicInfo-polygonSides="6" basicInfo-starPoints="5" bounding="rect(-16.5,-84,33,168)" text="" font-familyName="Helvetica" font-pixelSize="20" font-bold="0" font-underline="0" font-alignment="1" strokeStyle="0" markerStart="0" markerEnd="0" shadowEnabled="0" shadowOffsetX="0" shadowOffsetY="2" shadowBlur="4" shadowOpacity="160" blurEnabled="0" blurRadius="4" transform="matrix(1.64644,-1.00306,0.753867,1.23741,276.507,247.906)" pers-center="0,0" pers-size="0,0" pers-start="0,0" pers-end="0,0" locked="0" mesh="" flag=""/>
            <path id="shapePath3" d="M195.062,175.363 C190.066,167.163 194.861,155.125 205.773,148.478 L220.591,139.45 C231.503,132.803 244.399,134.062 249.395,142.262 L357.952,320.449 C362.948,328.65 358.152,340.687 347.241,347.335 L332.423,356.363 C321.511,363.01 308.615,361.751 303.619,353.551 L195.062,175.363 Z" style="stroke:none;fill-rule:evenodd;fill:#7d7d7d;fill-opacity:1;"/>
        </g>
        <g id="Shape4">
            <desc type="0" basicInfo-basicType="2" basicInfo-roundedRectRadius="12" basicInfo-polygonSides="6" basicInfo-starPoints="5" bounding="rect(-16.5,-84,33,168)" text="" font-familyName="Helvetica" font-pixelSize="20" font-bold="0" font-underline="0" font-alignment="1" strokeStyle="0" markerStart="0" markerEnd="0" shadowEnabled="0" shadowOffsetX="0" shadowOffsetY="2" shadowBlur="4" shadowOpacity="160" blurEnabled="0" blurRadius="4" transform="matrix(1.92793,0,0,1.87055,400.582,292.055)" pers-center="0,0" pers-size="0,0" pers-start="0,0" pers-end="0,0" locked="0" mesh="" flag=""/>
            <path id="shapePath4" d="M368.771,157.376 C368.771,144.979 379.129,134.929 391.906,134.929 L409.257,134.929 C422.034,134.929 432.392,144.979 432.392,157.376 L432.392,426.735 C432.392,439.132 422.034,449.182 409.257,449.182 L391.906,449.182 C379.129,449.182 368.771,439.132 368.771,426.735 L368.771,157.376 Z" style="stroke:none;fill-rule:evenodd;fill:#0e8bff;fill-opacity:1;"/>
        </g>
        <g id="Shape5">
            <desc type="0" basicInfo-basicType="2" basicInfo-roundedRectRadius="12" basicInfo-polygonSides="6" basicInfo-starPoints="5" bounding="rect(-16.5,-84,33,168)" text="" font-familyName="Helvetica" font-pixelSize="20" font-bold="0" font-underline="0" font-alignment="1" strokeStyle="0" markerStart="0" markerEnd="0" shadowEnabled="0" shadowOffsetX="0" shadowOffsetY="2" shadowBlur="4" shadowOpacity="160" blurEnabled="0" blurRadius="4" transform="matrix(0.0210067,1.92781,-1.44589,0.0157553,400.582,166.2)" pers-center="0,0" pers-size="0,0" pers-start="0,0" pers-end="0,0" locked="0" mesh="" flag=""/>
            <path id="shapePath5" d="M504.339,133.257 C513.921,133.152 521.802,143.425 521.941,156.201 L522.131,173.552 C522.27,186.328 514.615,196.77 505.032,196.875 L296.824,199.143 C287.242,199.248 279.361,188.975 279.222,176.199 L279.033,158.848 C278.893,146.072 286.549,135.63 296.131,135.525 L504.339,133.257 Z" style="stroke:none;fill-rule:evenodd;fill:#0e8bff;fill-opacity:1;"/>
        </g>
        <g id="Shape6">
            <desc type="0" basicInfo-basicType="4" basicInfo-roundedRectRadius="12" basicInfo-polygonSides="6" basicInfo-starPoints="5" bounding="rect(-25.5,-25.5,51,51)" text="" font-familyName="Helvetica" font-pixelSize="20" font-bold="0" font-underline="0" font-alignment="1" strokeStyle="0" markerStart="0" markerEnd="0" shadowEnabled="0" shadowOffsetX="0" shadowOffsetY="2" shadowBlur="4" shadowOpacity="160" blurEnabled="0" blurRadius="4" transform="matrix(1.203,-0.661722,0.661722,1.203,162.629,65.8359)" pers-center="0,0" pers-size="0,0" pers-start="0,0" pers-end="0,0" locked="0" mesh="" flag=""/>
            <path id="shapePath6" d="M131.952,82.7098 C122.633,65.7677 128.813,44.4786 145.755,35.1594 C162.697,25.8402 183.986,32.0199 193.305,48.962 C202.625,65.9042 196.445,87.1932 179.503,96.5124 C162.561,105.832 141.272,99.652 131.952,82.7098 Z" style="stroke:none;fill-rule:evenodd;fill:#7d7d7d;fill-opacity:1;"/>
        </g>
        <g id="Shape7">
            <desc type="0" basicInfo-basicType="0" basicInfo-roundedRectRadius="12" basicInfo-polygonSides="6" basicInfo-starPoints="5" bounding="rect(-20,-28,40,56)" text="" font-familyName="Helvetica" font-pixelSize="20" font-bold="0" font-underline="0" font-alignment="1" strokeStyle="0" markerStart="0" markerEnd="0" shadowEnabled="0" shadowOffsetX="0" shadowOffsetY="2" shadowBlur="4" shadowOpacity="160" blurEnabled="0" blurRadius="4" transform="matrix(1.203,-0.661722,0.661722,1.203,185.127,106.738)" pers-center="0,0" pers-size="0,0" pers-start="0,0" pers-end="0,0" locked="0" mesh="" flag=""/>
            <path id="shapePath7" d="M143.201,87.4914 C143.201,87.4914 207.265,138.437 207.265,138.437 C207.265,138.437 190.659,59.8195 190.659,59.8195 C190.659,59.8195 143.201,87.4914 143.201,87.4914 Z" style="stroke:none;fill-rule:evenodd;fill:#7d7d7d;fill-opacity:1;"/>
        </g>
    </g>
</svg>
